<svg xmlns="http://www.w3.org/2000/svg" xmlns:xlink="http://www.w3.org/1999/xlink" viewBox="0,0,256,256" width="64px" height="64px" fill-rule="nonzero"><defs><linearGradient x1="43.536" y1="33.809" x2="43.536" y2="40.128" gradientUnits="userSpaceOnUse" id="color-1"><stop offset="0" stop-color="#8cc5fc"></stop><stop offset="1" stop-color="#d5a8fb"></stop></linearGradient><linearGradient x1="20.464" y1="22.575" x2="20.464" y2="28.841" gradientUnits="userSpaceOnUse" id="color-2"><stop offset="0" stop-color="#8cc5fc"></stop><stop offset="1" stop-color="#d5a8fb"></stop></linearGradient><linearGradient x1="37.378" y1="16.957" x2="37.378" y2="22.378" gradientUnits="userSpaceOnUse" id="color-3"><stop offset="0" stop-color="#8cc5fc"></stop><stop offset="1" stop-color="#d5a8fb"></stop></linearGradient><linearGradient x1="26.622" y1="39.681" x2="26.622" y2="45.938" gradientUnits="userSpaceOnUse" id="color-4"><stop offset="0" stop-color="#8cc5fc"></stop><stop offset="1" stop-color="#d5a8fb"></stop></linearGradient><linearGradient x1="32" y1="7.34" x2="32" y2="54.271" gradientUnits="userSpaceOnUse" id="color-5"><stop offset="0" stop-color="#1a6dff"></stop><stop offset="1" stop-color="#7637ec" stop-opacity="0.70196"></stop></linearGradient></defs><g fill="none" fill-rule="nonzero" stroke="none" stroke-width="1" stroke-linecap="butt" stroke-linejoin="miter" stroke-miterlimit="10" stroke-dasharray="" stroke-dashoffset="0" font-family="none" font-weight="none" font-size="none" text-anchor="none" style="mix-blend-mode: normal"><g transform="translate(298.11461,189.92531) rotate(155) scale(4,4)"><path d="M41.1,42.5l7.6,-2.7l-2.8,-7.5l-7.5,2.7z" fill="url(#color-1)"></path><path d="M18.1,31.7l7.5,-2.7l-2.7,-7.5l-7.6,2.7z" fill="url(#color-2)"></path><path d="M35,25.6l7.5,-2.7l-2.7,-7.6l-7.5,2.8z" fill="url(#color-3)"></path><g fill="url(#color-4)"><path d="M24.2,48.7l7.5,-2.8l-2.7,-7.5l-7.5,2.7z"></path></g><path d="M56.7,32.6c-0.5,-1.3 -1.4,-2.3 -2.6,-2.8c-1.2,-0.5 -2.6,-0.6 -3.8,-0.2l-3.8,1.4l-2.7,-7.5l3.8,-1.4c1.3,-0.5 2.3,-1.4 2.8,-2.6c0.6,-1.2 0.6,-2.6 0.2,-3.8c-0.5,-1.3 -1.4,-2.3 -2.6,-2.8c-1.2,-0.5 -2.6,-0.6 -3.8,-0.2l-3.8,1.4l-1.4,-3.8c-0.9,-2.6 -3.8,-3.9 -6.4,-3c-2.6,0.9 -3.9,3.8 -3,6.4l1.4,3.8l-7.5,2.7l-1.4,-3.8c-0.9,-2.6 -3.8,-3.9 -6.4,-3c-1.3,0.5 -2.3,1.4 -2.8,2.6c-0.6,1.2 -0.6,2.6 -0.2,3.8l1.4,3.8l-3.8,1.4c-1.3,0.5 -2.3,1.4 -2.8,2.6c-0.6,1.2 -0.6,2.6 -0.2,3.8c0.5,1.3 1.4,2.3 2.6,2.8c0.7,0.3 1.4,0.5 2.1,0.5c0.6,0 1.2,-0.1 1.7,-0.3l3.8,-1.4l2.7,7.5l-3.8,1.4c-1.3,0.5 -2.3,1.4 -2.8,2.6c-0.6,1.2 -0.6,2.6 -0.2,3.8c0.5,1.3 1.4,2.3 2.6,2.8c0.7,0.3 1.4,0.5 2.1,0.5c0.6,0 1.2,-0.1 1.7,-0.3l3.8,-1.4l1.4,3.8c0.7,2 2.7,3.3 4.7,3.3c0.6,0 1.1,-0.1 1.7,-0.3v0c2.6,-0.9 3.9,-3.8 3,-6.4l-1.4,-3.8l7.5,-2.7l1.4,3.8c0.7,2 2.7,3.3 4.7,3.3c0.6,0 1.1,-0.1 1.7,-0.3c1.3,-0.5 2.3,-1.4 2.8,-2.6c0.6,-1.2 0.6,-2.6 0.2,-3.8l-1.4,-3.8l3.8,-1.4c1.3,-0.5 2.3,-1.4 2.8,-2.6c0.6,-1.2 0.6,-2.6 0.2,-3.8zM44.6,31.7l-5.6,2l-2.7,-7.5l5.6,-2.1zM45.3,33.5l2.1,5.6l-5.6,2.1l-2.1,-5.6zM37.1,34.4l-7.5,2.7l-2.7,-7.5l7.5,-2.7zM35.6,24.3l-2.1,-5.6l5.6,-2.1l2.1,5.6zM44.8,14.6c0.3,-0.1 0.7,-0.2 1,-0.2c0.4,0 0.9,0.1 1.3,0.3c0.7,0.3 1.3,0.9 1.6,1.7c0.3,0.8 0.2,1.6 -0.1,2.3c-0.3,0.7 -0.9,1.3 -1.7,1.6l-3.8,1.4l-2.1,-5.6zM31.5,13c-0.6,-1.6 0.2,-3.3 1.8,-3.8c0.3,-0.1 0.7,-0.2 1,-0.2c1.2,0 2.4,0.8 2.8,2l1.4,3.8l-5.6,2.1zM31.7,19.4l2.1,5.6l-7.5,2.7l-2.1,-5.6zM24.3,28.4l-5.6,2.1l-2.1,-5.6l5.6,-2.1zM14.6,19.2c-0.3,-0.8 -0.2,-1.6 0.1,-2.3c0.3,-0.7 0.9,-1.3 1.7,-1.6c0.3,-0.1 0.7,-0.2 1,-0.2c1.2,0 2.4,0.8 2.8,2l1.4,3.8l-5.6,2.1zM13,32.5c-0.8,0.3 -1.6,0.2 -2.3,-0.1c-0.7,-0.3 -1.3,-0.9 -1.6,-1.7c-0.3,-0.8 -0.2,-1.6 0.1,-2.3c0.3,-0.7 0.9,-1.3 1.7,-1.6l3.8,-1.4l2.1,5.6zM19.4,32.3l5.6,-2.1l2.7,7.5l-5.6,2.1zM28.4,39.7l2.1,5.6l-5.6,2.1l-2.1,-5.6zM19.2,49.4c-0.8,0.3 -1.6,0.2 -2.3,-0.1c-0.7,-0.3 -1.3,-0.9 -1.6,-1.7c-0.3,-0.8 -0.2,-1.6 0.1,-2.3c0.3,-0.7 0.9,-1.3 1.7,-1.6l3.8,-1.4l2.1,5.6zM32.5,51c0.6,1.6 -0.2,3.3 -1.8,3.8c-1.6,0.6 -3.3,-0.2 -3.8,-1.8l-1.4,-3.8l5.6,-2.1zM32.3,44.6l-2,-5.6l7.5,-2.7l2.1,5.6zM49.4,44.8c0.3,0.8 0.2,1.6 -0.1,2.3c-0.3,0.7 -0.9,1.3 -1.7,1.6v0c-1.6,0.6 -3.3,-0.2 -3.8,-1.8l-1.4,-3.8l5.6,-2.1zM54.7,35.6c-0.3,0.7 -0.9,1.3 -1.7,1.6l-3.8,1.4l-2.1,-5.6l3.8,-1.4c0.3,-0.1 0.7,-0.2 1,-0.2c0.4,0 0.9,0.1 1.3,0.3c0.7,0.3 1.3,0.9 1.6,1.7c0.3,0.6 0.3,1.4 -0.1,2.2z" fill="url(#color-5)"></path></g></g></svg>